# xmcd
#
# Track frame offsets: 
#        150
#        17712
#        39742
#        69548
#        86470
#        103630
#        119092
#        132276
#        162009
#        187201
#        204300
#        227305
#
# Disc length: 3249 seconds
#
# Revision: 0
# Processed by: cddbd v1.5.1PL2 Copyright (c) Steve Scherf et al.
# Submitted via: ExactAudioCopy v0.95b3
#
DISCID=9e0caf0c
DTITLE=Rio Lindo - Moonlight Rodeo
DYEAR=2003
DGENRE=Country
TTITLE0=Steal Your Thunder
TTITLE1=Roving Sign
TTITLE2=Rio Lindo
TTITLE3=Hell Is In Nevada
TTITLE4=Damn Near
TTITLE5=Chapeau Flambeau
TTITLE6=Bigger Than The Both Of Us
TTITLE7=Worried In Mind
TTITLE8=Something To Believe In
TTITLE9=Prodigal Sun
TTITLE10=When I Leave This World Behind
TTITLE11=(no title)
EXTD=
EXTT0=
EXTT1=
EXTT2=
EXTT3=
EXTT4=
EXTT5=
EXTT6=
EXTT7=
EXTT8=
EXTT9=
EXTT10=
EXTT11=
PLAYORDER=
